<svg width="63" height="24" viewBox="0 0 63 24" fill="none" xmlns="http://www.w3.org/2000/svg">
<path d="M23.3303 23.8C23.0831 23.8 22.8696 23.7101 22.6898 23.5303C22.5099 23.3505 22.42 23.137 22.42 22.8897V1.1103C22.42 0.86306 22.5099 0.649537 22.6898 0.469727C22.8696 0.289917 23.0831 0.200012 23.3303 0.200012H29.7698C30.017 0.200012 30.2305 0.289917 30.4103 0.469727C30.5901 0.649537 30.68 0.86306 30.68 1.1103V7.78573L34.4898 0.941727C34.6021 0.761917 34.7595 0.593346 34.9618 0.436013C35.1865 0.278679 35.4787 0.200012 35.8383 0.200012H43.2892C43.4915 0.200012 43.66 0.278679 43.7949 0.436013C43.9522 0.57087 44.0309 0.739441 44.0309 0.941727C44.0309 1.07658 43.9972 1.2002 43.9298 1.31258L37.8612 11.4943L44.5029 22.6874C44.5703 22.7773 44.604 22.901 44.604 23.0583C44.604 23.2606 44.5254 23.4404 44.368 23.5977C44.2332 23.7326 44.0646 23.8 43.8623 23.8H36.1755C35.7259 23.8 35.3888 23.6989 35.164 23.4966C34.9618 23.2718 34.8381 23.1145 34.7932 23.0246L30.68 15.6749V22.8897C30.68 23.137 30.5901 23.3505 30.4103 23.5303C30.2305 23.7101 30.017 23.8 29.7698 23.8H23.3303Z" fill="#32F0C3"/>
<path d="M7.88914 23.8C7.43962 23.8 7.09124 23.6764 6.844 23.4291C6.59676 23.1819 6.43943 22.9347 6.372 22.6874L0.0337143 1.17773C0.0112381 1.08782 0 1.00916 0 0.941727C0 0.739441 0.0674286 0.57087 0.202286 0.436013C0.359619 0.278679 0.539428 0.200012 0.741714 0.200012H7.01257C7.46209 0.200012 7.81047 0.323632 8.05771 0.57087C8.30495 0.818108 8.46228 1.06535 8.52971 1.31258L11.7326 13.8543L14.9354 1.31258C15.0029 1.06535 15.1602 0.818108 15.4074 0.57087C15.6547 0.323632 16.003 0.200012 16.4526 0.200012H22.7234C22.9257 0.200012 23.0943 0.278679 23.2291 0.436013C23.3865 0.57087 23.4651 0.739441 23.4651 0.941727C23.4651 1.00916 23.4539 1.08782 23.4314 1.17773L17.0931 22.6874C17.0257 22.9347 16.8684 23.1819 16.6211 23.4291C16.3739 23.6764 16.0255 23.8 15.576 23.8H7.88914Z" fill="black"/>
<path d="M40.7076 23.8C40.4604 23.8 40.2469 23.7213 40.067 23.564C39.8872 23.3842 39.7973 23.1594 39.7973 22.8897V1.1103C39.7973 0.86306 39.8872 0.649537 40.067 0.469727C40.2469 0.289917 40.4604 0.200012 40.7076 0.200012H47.3156C47.5629 0.200012 47.7764 0.289917 47.9562 0.469727C48.136 0.649537 48.2259 0.86306 48.2259 1.1103V8.1903H53.6876V1.1103C53.6876 0.86306 53.7775 0.649537 53.9573 0.469727C54.1371 0.289917 54.3507 0.200012 54.5979 0.200012H61.2059C61.4531 0.200012 61.6667 0.289917 61.8465 0.469727C62.0263 0.649537 62.1162 0.86306 62.1162 1.1103V22.8897C62.1162 23.137 62.0263 23.3505 61.8465 23.5303C61.6667 23.7101 61.4531 23.8 61.2059 23.8H54.5979C54.3507 23.8 54.1371 23.7101 53.9573 23.5303C53.7775 23.3505 53.6876 23.137 53.6876 22.8897V15.6074H48.2259V22.8897C48.2259 23.137 48.136 23.3505 47.9562 23.5303C47.7764 23.7101 47.5629 23.8 47.3156 23.8H40.7076Z" fill="black"/>
<path fill-rule="evenodd" clip-rule="evenodd" d="M7.38866 22.4102C7.39341 22.4276 7.42613 22.5213 7.58899 22.6842C7.59547 22.6906 7.60789 22.7019 7.64304 22.7144C7.68265 22.7284 7.75933 22.7464 7.88914 22.7464H15.576C15.7058 22.7464 15.7825 22.7284 15.8221 22.7144C15.8572 22.7019 15.8697 22.6906 15.8762 22.6842C16.039 22.5213 16.0719 22.4276 16.0767 22.4102L16.0823 22.3896L19.7005 10.1118V1.25358H16.4526C16.3228 1.25358 16.2461 1.27158 16.2065 1.28564C16.1713 1.29811 16.1589 1.30937 16.1524 1.31586L15.4074 0.57087C15.6547 0.323632 16.003 0.200012 16.4526 0.200012H28.1037C28.351 0.200012 28.5645 0.289917 28.7443 0.469727C28.9241 0.649536 29.014 0.863061 29.014 1.1103V7.78573L32.8237 0.941727C32.9361 0.761917 33.0935 0.593346 33.2957 0.436013C33.5205 0.278679 33.8127 0.200012 34.1723 0.200012H47.3156C47.5629 0.200012 47.7764 0.289917 47.9562 0.469727C48.136 0.649536 48.2259 0.863061 48.2259 1.1103V8.1903H53.6876V1.1103C53.6876 0.863061 53.7775 0.649536 53.9573 0.469727C54.1371 0.289917 54.3507 0.200012 54.5979 0.200012H61.2059C61.4531 0.200012 61.6667 0.289917 61.8465 0.469727C62.0263 0.649536 62.1162 0.863061 62.1162 1.1103V22.8897C62.1162 23.137 62.0263 23.3505 61.8465 23.5303C61.6667 23.7101 61.4531 23.8 61.2059 23.8H54.5979C54.3507 23.8 54.1371 23.7101 53.9573 23.5303C53.7775 23.3505 53.6876 23.137 53.6876 22.8897V15.6074H48.2259V22.8897C48.2259 23.137 48.136 23.3505 47.9562 23.5303C47.7764 23.7101 47.5629 23.8 47.3156 23.8H34.5095C34.0599 23.8 33.7228 23.6989 33.498 23.4966C33.2957 23.2718 33.1721 23.1145 33.1272 23.0246L29.014 15.6749V22.8897C29.014 23.137 28.9241 23.3505 28.7443 23.5303C28.5645 23.7101 28.351 23.8 28.1037 23.8H21.6643C21.4171 23.8 21.2036 23.7101 21.0238 23.5303C20.8439 23.3505 20.754 23.137 20.754 22.8897V10.2638L17.0931 22.6874C17.0257 22.9347 16.8684 23.1819 16.6211 23.4291C16.3739 23.6764 16.0255 23.8 15.576 23.8H7.88914C7.43962 23.8 7.09124 23.6764 6.844 23.4291C6.59676 23.1819 6.43943 22.9347 6.372 22.6874L0.0337143 1.17773C0.0112381 1.08782 0 1.00916 0 0.941727C0 0.739441 0.0674286 0.57087 0.202286 0.436013C0.359619 0.278679 0.539428 0.200012 0.741714 0.200012H7.01257C7.46209 0.200012 7.81047 0.323632 8.05771 0.57087C8.30495 0.818108 8.46228 1.06535 8.52971 1.31258L11.7326 13.8543L14.9354 1.31258C15.0029 1.06535 15.1602 0.818108 15.4074 0.57087L16.1524 1.31586C15.9984 1.46984 15.9606 1.56197 15.9529 1.58627L12.7534 14.115H10.7118L7.51222 1.58628C7.50455 1.56199 7.46673 1.46986 7.31273 1.31586C7.30624 1.30937 7.29382 1.29811 7.25867 1.28564C7.21906 1.27158 7.14238 1.25358 7.01257 1.25358H1.15443L7.38866 22.4102ZM21.8076 10.4158V22.7464H27.9605V1.25358H24.4914C24.4807 1.31653 24.4677 1.37666 24.4535 1.43325L24.4482 1.45451L21.8076 10.4158ZM22.3107 1.25358H21.8076V2.96093L22.3107 1.25358ZM28.019 11.7395L34.0513 22.5184C34.0572 22.5267 34.0671 22.54 34.082 22.5591C34.1121 22.5974 34.1539 22.6475 34.2091 22.7107C34.2461 22.7238 34.3351 22.7464 34.5095 22.7464H38.7438V17.854L34.9694 11.4931L38.7438 5.16051V1.25358H34.1723C34.0103 1.25358 33.9362 1.28068 33.9107 1.29307C33.8172 1.36977 33.7611 1.43479 33.7277 1.48397L28.019 11.7395ZM40.8509 1.25358V1.62519L41.0724 1.25358H40.8509ZM43.3916 1.25358C43.355 1.4628 43.2807 1.66501 43.1679 1.85339L40.8509 5.74084V17.2759L43.7227 22.1156C43.862 22.3221 43.9339 22.5415 43.9671 22.7464H47.1723V14.5539H54.7412V22.7464H61.0626V1.25358H54.7412V9.24387H47.1723V1.25358H43.3916ZM41.6468 22.7464L40.8509 21.4051V22.7464H41.6468ZM39.7973 5.45067L36.1952 11.4943L39.7973 17.5649V5.45067Z" fill="black"/>
</svg>
