<svg width="1188" height="291" viewBox="0 0 1188 291" fill="none" xmlns="http://www.w3.org/2000/svg">
<ellipse cx="75.3317" cy="272.771" rx="22.9113" ry="6.02928" fill="#382121" fill-opacity="0.5"/>
<path d="M35.7581 139.174C25.1226 139.272 7.99109 147.119 0.754779 151.03C31.253 149.204 29.2805 163.576 43.9146 176.381C56.8769 187.723 84.3968 189.445 80.5672 165.745C76.7376 142.044 49.0525 139.052 35.7581 139.174Z" fill="#009E4D"/>
<path d="M112.739 121.935C124.426 120.046 144.714 125.402 153.397 128.316C119.59 132.045 111.383 175.932 98.8389 180.26C86.2944 184.588 68.9386 185.971 68.6317 159.366C68.3247 132.76 98.1297 124.297 112.739 121.935Z" fill="#009E4D"/>
<circle cx="78.1455" cy="190.371" r="27.3327" fill="#009E4D"/>
<circle cx="67.6948" cy="191.175" r="4.82342" fill="#382121"/>
<circle cx="93.4196" cy="189.567" r="4.82342" fill="#382121"/>
<path d="M78.1455 195.999C83.7192 197.291 83.7192 197.291 87.7924 195.999C87.4708 198.41 85.7558 203.234 83.7192 203.234C81.2325 203.234 78.9673 198.41 78.1455 195.999Z" fill="#382121"/>
<path d="M67.5656 259.946C76.7294 248.541 77.9028 224.889 77.344 214.488H80.6966C88.5194 229.013 82.3729 258.601 80.6966 261.828C79.0203 265.056 76.5059 269.629 70.6388 268.015C65.9451 266.724 66.6343 262.097 67.5656 259.946Z" fill="#009E4D"/>
<path d="M0.970703 150.794C13.2949 147.908 40.7498 143.705 51.9765 149.982C63.2032 156.259 73.9261 166.125 77.8842 170.273C80.1331 162.337 87.8695 144.571 100.823 136.996C117.016 127.526 146.702 126.985 152.909 128.067" stroke="#70BF4C"/>
<path d="M25.8916 155.803L50.8126 149.214L43.6923 139.725" stroke="#70BF4C"/>
<path d="M70.6422 148.568L78.1453 169.917L52.4204 180.724" stroke="#70BF4C"/>
<path d="M39.5581 172.685L64.4791 158.751L63.6484 144.548" stroke="#70BF4C"/>
<path d="M120.752 149.908L85.3806 153.392L86.4607 130.882" stroke="#70BF4C"/>
<path d="M136.83 134.902L111.909 133.064L119.413 122.039" stroke="#70BF4C"/>
<path d="M102.263 178.312L78.1455 170.273" stroke="#70BF4C"/>
<path d="M178.159 114.772C178.159 112.309 178.018 109.804 178.181 107.347C178.404 104.007 181.914 100.627 185.16 100.313C186.149 100.218 188.433 99.5572 189.235 100.503C190.858 102.416 190.821 105.737 190.821 108.14C190.821 108.782 190.912 109.524 190.687 110.139C190.343 111.075 188.937 111.415 188.119 111.758C186.831 112.297 184.162 113.136 183.675 111.11C183.393 109.937 183.411 108.122 183.653 106.957C183.968 105.431 185.684 104.143 186.957 103.406C188.069 102.763 189.16 102.155 190.408 101.821C191.316 101.577 192.373 101.411 193.232 101.017C194.224 100.561 196.037 100.432 197.051 100.938C199.4 102.113 199.947 104.667 200.467 106.957C201.027 109.42 200.772 111.802 199.161 113.767C198.165 114.983 196.874 115.941 195.242 115.465C193.671 115.006 193.804 111.248 194.483 110.15C196.362 107.111 200.467 106.791 203.683 106.733C207.635 106.663 210.227 111.694 211.32 114.973" stroke="#DF4E5D" stroke-linecap="round"/>
<path d="M177.299 107.637C183.408 107.637 186.007 121.304 186.543 128.137C190.429 121.304 200.129 107.637 207.847 107.637C217.494 107.637 209.857 118.49 222.317 142.205C234.778 165.92 222.719 179.185 219.503 182.802C216.288 186.42 186.543 206.115 164.838 182.802C143.133 159.489 160.015 140.195 167.652 130.147C175.289 120.098 169.661 107.637 177.299 107.637Z" fill="#C1D72F"/>
<ellipse cx="22.9113" cy="6.02928" rx="22.9113" ry="6.02928" transform="matrix(-1 0 0 1 214.278 232.644)" fill="#382121" fill-opacity="0.5"/>
<path d="M199.133 225.848C189.969 214.443 188.796 190.791 189.355 180.391H186.002C178.179 194.915 184.326 224.503 186.002 227.731C187.678 230.959 190.193 235.531 196.06 233.917C200.754 232.626 200.064 228 199.133 225.848Z" fill="#C1D72F"/>
<path d="M180.625 128.539C173.122 143.679 162.216 177.496 178.615 191.645C195.015 205.794 202.331 142.875 203.938 109.647" stroke="#70BF4C"/>
<circle cx="4.82342" cy="4.82342" r="4.82342" transform="matrix(-1 0 0 1 203.827 152.254)" fill="#382121"/>
<circle cx="4.82342" cy="4.82342" r="4.82342" transform="matrix(-1 0 0 1 178.102 150.646)" fill="#382121"/>
<path d="M188.553 161.9C182.979 163.192 182.979 163.192 178.906 161.9C179.228 164.312 180.943 169.136 182.979 169.136C185.466 169.136 187.731 164.312 188.553 161.9Z" fill="#382121"/>
<path d="M297.156 238.759C292.114 238.641 294.385 217.906 296.15 207.553L413.24 205.885L414.392 241.649C400.971 242.081 396.221 238.023 384.863 237.336C373.504 236.649 362.678 239.455 353.994 243.596C345.31 247.736 333.284 239.349 320.61 236.95C307.937 234.551 303.459 238.907 297.156 238.759Z" fill="#0078AE"/>
<path d="M345.51 212.315C342.515 223.127 338.594 250.993 346.871 275.967" stroke="black" stroke-width="2"/>
<path d="M348.524 278.133C340.379 282.395 323.123 289.103 319.268 281.845C314.45 272.772 345.771 266.586 348.524 278.133Z" fill="#009E4D"/>
<path d="M368.526 212.315C372.519 223.127 377.746 250.993 366.71 275.967" stroke="black" stroke-width="2"/>
<path d="M364.23 278.133C373.055 282.395 391.748 289.103 395.925 281.845C401.145 272.772 367.213 266.586 364.23 278.133Z" fill="#009E4D"/>
<path d="M272.679 183.22C279.804 167.349 328.249 85.3189 346.127 70.8386C358.722 60.6378 372.098 67.8074 379.037 80.8073C385.656 93.2069 435.402 172.396 444.28 192.368C447.015 198.521 444.28 215.622 431.295 215.622C420.747 215.622 285.962 215.622 276.195 208.65C266.428 201.677 268.433 192.679 272.679 183.22Z" fill="#C1D72F"/>
<path d="M312.152 149.491C312.58 151.535 314.461 155.551 318.566 155.262C322.67 154.974 324.267 151.294 324.552 149.491" stroke="#009E4D" stroke-width="2"/>
<path d="M379.11 151.971C379.538 154.015 381.419 158.031 385.524 157.742C389.628 157.454 391.225 153.774 391.51 151.971" stroke="#009E4D" stroke-width="2"/>
<path d="M320.419 119.318C323.036 122.074 329.512 126.758 334.471 123.452C340.671 119.318 345.631 105.679 348.524 105.679C351.418 105.679 351.831 121.798 360.924 119.318C370.017 116.839 372.497 90.386 382.417 94.1059" stroke="#009E4D"/>
<path d="M313.955 165.197C316.384 168.198 326.203 174.285 346.04 174.619C370.835 175.036 384.493 174.082 389.168 166.462" stroke="#009E4D" stroke-width="2"/>
<path d="M301.819 213.142C358.361 207.521 404.46 166.988 420.442 147.424C427.055 152.715 435.873 169.606 438.628 177.597C424.575 194.543 414.656 191.65 401.429 194.956C386.55 198.676 381.59 205.703 368.777 213.142C358.527 219.094 320.005 215.622 301.819 213.142Z" fill="#0078AE"/>
<path d="M315.872 213.969C336.951 210.938 390.683 196.031 427.055 157.344" stroke="#C1D72F"/>
<path d="M430.362 170.57C412.313 185.037 361.585 212.894 316.285 213.556" stroke="#C1D72F"/>
<path d="M430.362 192.193C444.149 193.087 462.188 178.837 454.334 144.531" stroke="black" stroke-width="2"/>
<path d="M440.572 142.914C441.69 150.238 449.765 150.025 454.432 149.408C461.452 138.047 458.524 127.561 454.876 122.978C451.551 118.8 443.458 118.959 443.394 122.785C443.343 125.781 444.666 133.242 444.711 136.722C444.553 133.82 443.553 128.075 440.817 128.307C437.398 128.598 439.453 135.59 440.572 142.914Z" fill="#009E4D"/>
<path d="M289.389 181.73C290.927 195.461 302.113 223.152 334.555 224.074" stroke="black" stroke-width="2"/>
<path d="M343.335 212.843C335.927 212.743 334.81 220.743 334.652 225.448C344.706 234.239 355.53 233.073 360.65 230.228C365.317 227.634 366.49 219.625 362.727 218.933C359.78 218.391 352.203 218.471 348.763 217.943C351.651 218.264 357.482 218.221 357.703 215.484C357.978 212.063 350.743 212.942 343.335 212.843Z" fill="#009E4D"/>
<path d="M626.739 207.706C607.857 195.125 603.795 160.697 602.401 146.936C602.401 146.936 627.086 152.356 642.965 151.716C663.027 150.907 692.068 139.425 692.068 139.425C694.63 180.394 647.235 221.362 626.739 207.706Z" fill="#B09372"/>
<path d="M610.658 83C624.739 93.389 623.837 112.692 621.637 119.762L596.416 111.213L610.658 83Z" fill="#8D6D46"/>
<path d="M532.296 266.81C534.291 229.478 532.296 151.197 532.296 133.441C532.296 133.441 540.846 116.342 560.509 109.503C580.172 102.664 610.522 105.656 622.492 119.335C628.049 125.686 636.7 134.301 641.3 147.547C645.886 166.356 644.72 203.973 625.911 230.048C601.622 263.721 555.38 266.525 532.296 266.81Z" fill="#8D6D46"/>
<path d="M565.211 120.189C582.652 123.609 594.279 145.695 596.844 157.379C594.279 115.487 569.486 109.218 554.525 108.648C552.473 93.6011 535.431 88.6995 527.167 86.8472L532.296 133.441C536.001 127.599 547.771 116.77 565.211 120.189Z" fill="#382121"/>
<path d="M610.522 83L598.553 107.366C602.315 107.366 606.96 111.07 608.813 112.923C617.704 122.84 613.087 145.267 609.668 155.242C621.295 140.537 622.492 124.892 621.637 118.907C626.766 97.5338 616.08 87.4171 610.522 83Z" fill="#382121"/>
<path d="M594.445 169.024V165.255L610.571 160.679V173.061L594.445 169.024Z" fill="#382121"/>
<path d="M614.864 160.698L594.368 165.432C594.326 163.128 595.877 158.103 602.407 156.434C608.937 154.765 613.433 158.581 614.864 160.698Z" fill="#F2C94C"/>
<path d="M594.218 167.76L615.071 171.193C613.91 173.276 609.904 177.203 603.177 176.254C596.449 175.305 594.401 170.196 594.218 167.76Z" fill="#F2C94C"/>
<path d="M571.966 177.983C563.173 159.488 540.911 153.646 532.296 152.25V265.955C550.127 243.813 581.882 198.843 571.966 177.983Z" fill="#B09372"/>
<path d="M570.768 149.685C571.21 151.799 573.156 155.952 577.401 155.654C581.646 155.355 583.297 151.55 583.592 149.685" stroke="#382121" stroke-width="2"/>
<path d="M617.789 148.83C618.232 150.944 620.177 155.097 624.422 154.799C628.668 154.5 630.318 150.695 630.613 148.83" stroke="#382121" stroke-width="2"/>
<path d="M536.421 141.125C535.863 137.175 537.734 129.025 549.681 128.028C550.702 132.201 549.48 140.663 536.421 141.125Z" fill="#F2C94C"/>
<path d="M536.508 141.036C538.654 137.673 545.377 132.7 555.099 139.715C553.16 143.548 546.727 149.179 536.508 141.036Z" fill="#F2C94C"/>
<path d="M554.375 134.286C553.817 130.335 555.688 122.185 567.635 121.189C568.656 125.362 567.433 133.823 554.375 134.286Z" fill="#F2C94C"/>
<path d="M554.462 134.197C556.608 130.833 563.331 125.861 573.053 132.876C571.113 136.709 564.681 142.34 554.462 134.197Z" fill="#F2C94C"/>
<path d="M583.592 193.582C583.811 197 585.791 203.828 591.957 203.789C598.124 203.751 600.018 196.899 600.194 193.478C600.216 196.898 601.8 203.728 607.967 203.689C614.133 203.651 615.237 196.804 615.018 193.386C615.237 196.804 617.217 203.632 623.383 203.593C629.55 203.555 631.049 196.706 631.027 193.286" stroke="#B09372"/>
<path d="M890.092 6.74577C868.828 -3.62275 845.997 1.43222 837.239 5.25577C789.833 14.557 748.506 80.1996 736.134 103.329C726.237 121.833 760.407 127.459 778.73 127.959C778.437 130.304 780.293 137.324 790.06 146.645C802.269 158.296 833.571 156.372 878.405 154.512C914.272 153.024 923.886 134.712 924.21 125.742C935.184 130.349 980.093 112.34 973.839 93.264C967.586 74.1877 916.673 19.7064 890.092 6.74577Z" fill="#009E4D"/>
<path d="M817.167 142.501C817.167 164.592 805.415 184.001 781.667 184.001C757.919 184.001 731.167 164.592 731.167 142.501C731.167 120.409 735.919 102 759.667 102C783.415 102 817.167 120.409 817.167 142.501Z" fill="#70BF4C"/>
<path d="M792.167 162.501C812.567 178.101 816.001 200.668 815.167 210.001C820.001 208.168 827.767 201.001 820.167 187.001C812.567 173.001 800.667 160.501 795.667 156.001L792.167 162.501Z" fill="#8D6D46"/>
<path d="M896.168 150.501C896.168 172.592 907.92 192.001 931.668 192.001C955.416 192.001 982.168 172.592 982.168 150.501C982.168 128.409 977.417 110 953.668 110C929.92 110 896.168 128.409 896.168 150.501Z" fill="#70BF4C"/>
<path d="M922.988 162.854C901.373 176.722 896.093 198.929 896.155 208.3C891.489 206.075 884.339 198.293 893.066 184.966C901.793 171.639 914.681 160.161 920.035 156.088L922.988 162.854Z" fill="#8D6D46"/>
<path d="M864.021 87.0005L878.379 98.0218C879.3 106.705 883.75 130.836 888.168 164.501C893.69 206.582 912.952 240.296 904.668 266.847C898.041 288.088 874.892 290.837 856.668 290.002C839.363 289.501 802.167 285.413 802.167 266.847C802.167 231.279 813.379 197.935 819.667 179.001C824.659 163.972 832.011 123.07 833.667 98.0218L864.021 87.0005Z" fill="#8D6D46"/>
<path d="M855.668 290.002C854.168 270.835 851.768 227.401 854.168 207.001C856.568 186.601 856.168 120.501 855.668 90.0005" stroke="#382121"/>
<path d="M871.167 93C872.801 132.364 876.953 213.573 880.483 223.496C884.896 235.901 888.328 286.015 880.483 288" stroke="#382121"/>
<path d="M842.667 95.0005C838.834 138.167 830.067 229.301 825.667 248.501C821.267 267.702 824.834 281.835 827.167 286.502" stroke="#382121"/>
<path d="M839.215 218.068C842.889 217.277 849.59 223.673 852.481 226.97C858.603 239.828 854.012 256.148 841.256 262.577C828.501 269.007 804.011 266.534 810.133 266.534C816.256 266.534 834.623 219.057 839.215 218.068Z" fill="#382121"/>
<path d="M839.215 218.068C842.889 217.277 849.59 223.673 852.481 226.97C858.603 239.828 854.012 256.148 841.256 262.577C828.501 269.007 804.011 266.534 810.133 266.534C816.256 266.534 834.623 219.057 839.215 218.068Z" fill="#382121"/>
<path d="M839.215 218.068C842.889 217.277 849.59 223.673 852.481 226.97C858.603 239.828 854.012 256.148 841.256 262.577C828.501 269.007 804.011 266.534 810.133 266.534C816.256 266.534 834.623 219.057 839.215 218.068Z" fill="#382121"/>
<path d="M869.12 218.07C865.446 217.262 858.745 223.789 855.854 227.153C849.732 240.274 854.324 256.927 867.079 263.487C879.834 270.048 904.325 267.524 898.202 267.524C892.079 267.524 873.712 219.079 869.12 218.07Z" fill="#382121"/>
<path d="M869.12 218.07C865.446 217.262 858.745 223.789 855.854 227.153C849.732 240.274 854.324 256.927 867.079 263.487C879.834 270.048 904.325 267.524 898.202 267.524C892.079 267.524 873.712 219.079 869.12 218.07Z" fill="#382121"/>
<path d="M869.12 218.07C865.446 217.262 858.745 223.789 855.854 227.153C849.732 240.274 854.324 256.927 867.079 263.487C879.834 270.048 904.325 267.524 898.202 267.524C892.079 267.524 873.712 219.079 869.12 218.07Z" fill="#382121"/>
<path d="M874.168 208.001C874.668 210.334 876.468 215.001 879.668 215.001C882.868 215.001 884.001 210.334 884.168 208.001" stroke="#382121" stroke-width="2"/>
<path d="M837.167 208.001C836.667 210.334 834.867 215.001 831.667 215.001C828.467 215.001 827.334 210.334 827.167 208.001" stroke="#382121" stroke-width="2"/>
<path d="M809.667 266.502C815.001 264.668 826.767 258.302 831.167 247.501C836.667 234.001 840.167 222.001 853.668 235.501C855.001 232.501 859.568 227.401 867.168 231.001C876.668 235.501 875.168 268.002 898.168 268.002" stroke="#8D6D46"/>
<path d="M856.367 120.689C845.056 120.965 837.761 90.6339 835.528 75.4338L881.797 75.8605C878.033 90.6883 867.677 120.413 856.367 120.689Z" fill="#009E4D"/>
<path d="M842.592 194.041C844.047 197.018 843.199 199.619 836.996 202.65C830.793 205.68 818.996 203.65 820.129 205.014C820.129 205.014 825.525 194.898 831.728 191.867C837.931 188.837 841.138 191.063 842.592 194.041Z" fill="#382121"/>
<path d="M842.592 194.041C844.047 197.018 843.199 199.619 836.996 202.65C830.793 205.68 818.996 203.65 820.129 205.014C820.129 205.014 825.525 194.898 831.728 191.867C837.931 188.837 841.138 191.063 842.592 194.041Z" fill="#009E4D"/>
<path d="M867.485 194.041C866.03 197.018 866.878 199.619 873.081 202.65C879.284 205.68 891.081 203.65 889.948 205.014C889.948 205.014 884.552 194.898 878.349 191.867C872.146 188.837 868.939 191.063 867.485 194.041Z" fill="#382121"/>
<path d="M867.485 194.041C866.03 197.018 866.878 199.619 873.081 202.65C879.284 205.68 891.081 203.65 889.948 205.014C889.948 205.014 884.552 194.898 878.349 191.867C872.146 188.837 868.939 191.063 867.485 194.041Z" fill="#009E4D"/>
<path d="M1042.47 156.38C1045.82 153.861 1049.26 152.558 1051.46 151.885L1047.24 190.917C1034.65 197.758 1038.38 205.451 1034.46 199.559C1030.54 193.668 1027.26 167.798 1042.47 156.38Z" fill="#382121"/>
<path d="M1094.47 213.16L1089.69 203.26C1101.02 197.451 1106.7 210.912 1107.39 215.4C1107.93 218.991 1099 215.403 1094.47 213.16Z" fill="#382121"/>
<path d="M1111.34 243.996L1105.95 234.708C1106.73 233.76 1108.78 231.547 1110.76 230.283C1113.24 228.705 1118.75 237.53 1119.21 242.829C1119.58 247.068 1114.12 245.373 1111.34 243.996Z" fill="#382121"/>
<path d="M1071.02 235.102C1021.87 183.922 1057.93 128.587 1080.28 110.044C1084.47 106.421 1096.04 98.9128 1108.79 97.8611C1121.54 96.8094 1140.78 132.506 1148.81 150.486C1139.99 157.587 1132.8 163.226 1114.92 171.806C1076.47 190.25 1100.9 231.245 1117.72 249.871C1124.9 249.027 1143.01 232.314 1150.48 241.87C1153 245.089 1141.7 254.747 1145.6 261.695C1153.29 275.372 1175.18 288.233 1164.26 288.62C1152.26 289.044 1110.33 276.047 1071.02 235.102Z" fill="#983D3D"/>
<path d="M1146.34 94.7069C1160.57 92.2967 1164.35 93.9198 1166.33 98.0828C1168.87 99.876 1169.61 103.663 1165.61 104.688C1160.61 105.97 1140.08 121.706 1152.06 123.271C1158.42 124.102 1162.5 123.351 1166.1 122.663C1169.99 120.35 1174.59 121.519 1172.25 123.328C1165.46 128.592 1162.93 129.533 1152.52 145.723L1152.31 145.976C1148.12 150.995 1141.85 158.507 1139.46 158.36C1106.87 156.356 1100.16 148.158 1099.01 136.369C1097.85 124.579 1102.33 112.655 1110.59 98.0559C1135.3 97.082 1129.32 97.5886 1146.34 94.7069Z" fill="#95A33A"/>
<circle cx="1142.13" cy="102.757" r="5.53999" transform="rotate(6.17 1142.13 102.757)" fill="#D9D9D9" stroke="#382121"/>
<circle cx="1143.46" cy="101.686" r="3.62399" transform="rotate(6.17 1143.46 101.686)" fill="#382121"/>
<path d="M1104.46 177.281C1108.06 177.671 1123.17 167.154 1139.62 158.3C1146.74 154.21 1150.56 149.763 1157.53 138.67C1164.51 127.577 1175.5 124.21 1173.33 121.848C1171.15 119.487 1167.59 121.532 1166.59 122.335C1165.59 123.139 1162.83 123.447 1155.82 123.601C1150.22 123.724 1148.75 122.533 1148.71 121.921C1142.12 126.677 1099.61 176.758 1104.46 177.281Z" fill="#D9D9D9"/>
<path d="M1158.63 101.807C1162.77 98.6854 1165.14 98.2828 1166.49 98.0231C1170.63 101.813 1168.34 103.337 1167 104.458C1154.64 108.71 1150 117.073 1148.84 120.72C1148.62 122.796 1147.31 124.559 1146.54 126.016C1143.89 131.092 1138.72 132.39 1136.17 129.755C1132.89 126.363 1137.49 123.214 1142.25 121.299C1147.01 119.384 1154.5 104.929 1158.63 101.807Z" fill="#382121"/>
<path d="M1076.85 216.317L1074.05 205.686C1086.28 202.148 1089.29 216.447 1089.1 220.983C1088.95 224.612 1080.87 219.384 1076.85 216.317Z" fill="#382121"/>
<path d="M1100.27 247.846L1094.88 238.558C1095.66 237.61 1097.71 235.397 1099.69 234.134C1102.17 232.555 1107.68 241.38 1108.14 246.679C1108.51 250.918 1103.05 249.223 1100.27 247.846Z" fill="#382121"/>
<path d="M1103.27 113.744C1091.17 147.064 1103.32 155.426 1139.46 158.36" stroke="#382121"/>
<path d="M1115.12 116.544C1113.16 123.42 1111.95 138.011 1122.77 141.367" stroke="#382121"/>
<path d="M1107.92 118.5C1106.79 127.086 1108 144.753 1121.88 146.74" stroke="#382121"/>
<path d="M1076.66 160.684C1079.21 157.315 1093.99 154.963 1101.05 154.208L1109.77 157.884C1103.16 157.17 1070.48 178.545 1070.76 173.108C1071.05 167.671 1073.47 164.896 1076.66 160.684Z" fill="#382121"/>
</svg>
